<?xml version="1.0" encoding="UTF-8" standalone="no"?>
<!DOCTYPE svg PUBLIC "-//W3C//DTD SVG 1.1//EN"
 "http://www.w3.org/Graphics/SVG/1.1/DTD/svg11.dtd">
<!-- Generated by graphviz version 2.47.3 (20210619.1520)
 -->
<!-- Title: dependencies Pages: 1 -->
<svg width="460pt" height="247pt"
 viewBox="0.00 0.00 460.00 246.80" xmlns="http://www.w3.org/2000/svg" xmlns:xlink="http://www.w3.org/1999/xlink">
<g id="graph0" class="graph" transform="scale(1 1) rotate(0) translate(4 242.8)">
<title>dependencies</title>
<polygon fill="white" stroke="transparent" points="-4,4 -4,-242.8 456,-242.8 456,4 -4,4"/>
<text text-anchor="middle" x="226" y="-8.2" font-family="sans-serif" font-size="14.00">dependencies</text>
<g id="clust1" class="cluster">
<title>cluster_AuthModule</title>
<polygon fill="none" stroke="black" stroke-dasharray="1,5" points="8,-32.8 8,-230.8 444,-230.8 444,-32.8 8,-32.8"/>
</g>
<g id="clust4" class="cluster">
<title>cluster_AuthModule_exports</title>
<polygon fill="none" stroke="black" points="182,-170.8 182,-222.8 288,-222.8 288,-170.8 182,-170.8"/>
</g>
<g id="clust6" class="cluster">
<title>cluster_AuthModule_providers</title>
<polygon fill="none" stroke="black" points="16,-40.8 16,-92.8 436,-92.8 436,-40.8 16,-40.8"/>
</g>
<!-- AuthService  -->
<g id="node1" class="node">
<title>AuthService </title>
<polygon fill="#fb8072" stroke="black" points="279.98,-214.8 190.02,-214.8 190.02,-178.8 279.98,-178.8 279.98,-214.8"/>
<text text-anchor="middle" x="235" y="-192.6" font-family="Times,serif" font-size="14.00">AuthService </text>
</g>
<!-- AuthModule -->
<g id="node2" class="node">
<title>AuthModule</title>
<polygon fill="#8dd3c7" stroke="black" points="278.55,-149.8 275.55,-153.8 254.55,-153.8 251.55,-149.8 191.45,-149.8 191.45,-113.8 278.55,-113.8 278.55,-149.8"/>
<text text-anchor="middle" x="235" y="-127.6" font-family="Times,serif" font-size="14.00">AuthModule</text>
</g>
<!-- AuthModule&#45;&gt;AuthService  -->
<g id="edge1" class="edge">
<title>AuthModule&#45;&gt;AuthService </title>
<path fill="none" stroke="black" stroke-dasharray="5,2" d="M235,-149.91C235,-149.91 235,-168.79 235,-168.79"/>
<polygon fill="black" stroke="black" points="231.5,-168.79 235,-178.79 238.5,-168.79 231.5,-168.79"/>
</g>
<!-- AuthService -->
<g id="node3" class="node">
<title>AuthService</title>
<ellipse fill="#fdb462" stroke="black" cx="369" cy="-66.8" rx="59.11" ry="18"/>
<text text-anchor="middle" x="369" y="-62.6" font-family="Times,serif" font-size="14.00">AuthService</text>
</g>
<!-- AuthService&#45;&gt;AuthModule -->
<g id="edge2" class="edge">
<title>AuthService&#45;&gt;AuthModule</title>
<path fill="none" stroke="black" d="M369,-84.91C369,-104.14 369,-131.8 369,-131.8 369,-131.8 288.88,-131.8 288.88,-131.8"/>
<polygon fill="black" stroke="black" points="288.88,-128.3 278.88,-131.8 288.88,-135.3 288.88,-128.3"/>
</g>
<!-- JwtStrategy -->
<g id="node4" class="node">
<title>JwtStrategy</title>
<ellipse fill="#fdb462" stroke="black" cx="235" cy="-66.8" rx="56.76" ry="18"/>
<text text-anchor="middle" x="235" y="-62.6" font-family="Times,serif" font-size="14.00">JwtStrategy</text>
</g>
<!-- JwtStrategy&#45;&gt;AuthModule -->
<g id="edge3" class="edge">
<title>JwtStrategy&#45;&gt;AuthModule</title>
<path fill="none" stroke="black" d="M235,-84.91C235,-84.91 235,-103.79 235,-103.79"/>
<polygon fill="black" stroke="black" points="231.5,-103.79 235,-113.79 238.5,-103.79 231.5,-103.79"/>
</g>
<!-- PublicStrategy -->
<g id="node5" class="node">
<title>PublicStrategy</title>
<ellipse fill="#fdb462" stroke="black" cx="92" cy="-66.8" rx="67.79" ry="18"/>
<text text-anchor="middle" x="92" y="-62.6" font-family="Times,serif" font-size="14.00">PublicStrategy</text>
</g>
<!-- PublicStrategy&#45;&gt;AuthModule -->
<g id="edge4" class="edge">
<title>PublicStrategy&#45;&gt;AuthModule</title>
<path fill="none" stroke="black" d="M92,-84.91C92,-104.14 92,-131.8 92,-131.8 92,-131.8 181.32,-131.8 181.32,-131.8"/>
<polygon fill="black" stroke="black" points="181.32,-135.3 191.32,-131.8 181.32,-128.3 181.32,-135.3"/>
</g>
</g>
</svg>
