<?xml version="1.0" encoding="UTF-8" standalone="no"?>
<!DOCTYPE svg PUBLIC "-//W3C//DTD SVG 1.1//EN"
 "http://www.w3.org/Graphics/SVG/1.1/DTD/svg11.dtd">
<!-- Generated by graphviz version 2.47.3 (20210619.1520)
 -->
<!-- Title: dependencies Pages: 1 -->
<svg width="903pt" height="247pt"
 viewBox="0.00 0.00 903.00 246.80" xmlns="http://www.w3.org/2000/svg" xmlns:xlink="http://www.w3.org/1999/xlink">
<g id="graph0" class="graph" transform="scale(1 1) rotate(0) translate(4 242.8)">
<title>dependencies</title>
<polygon fill="white" stroke="transparent" points="-4,4 -4,-242.8 899,-242.8 899,4 -4,4"/>
<text text-anchor="middle" x="447.5" y="-8.2" font-family="sans-serif" font-size="14.00">dependencies</text>
<g id="clust1" class="cluster">
<title>cluster_SharedModule</title>
<polygon fill="none" stroke="black" stroke-dasharray="1,5" points="8,-32.8 8,-230.8 887,-230.8 887,-32.8 8,-32.8"/>
</g>
<g id="clust6" class="cluster">
<title>cluster_SharedModule_providers</title>
<polygon fill="none" stroke="black" points="16,-40.8 16,-92.8 879,-92.8 879,-40.8 16,-40.8"/>
</g>
<g id="clust4" class="cluster">
<title>cluster_SharedModule_exports</title>
<polygon fill="none" stroke="black" points="117,-170.8 117,-222.8 786,-222.8 786,-170.8 117,-170.8"/>
</g>
<!-- ApiConfigService  -->
<g id="node1" class="node">
<title>ApiConfigService </title>
<polygon fill="#fb8072" stroke="black" points="777.86,-214.8 656.14,-214.8 656.14,-178.8 777.86,-178.8 777.86,-214.8"/>
<text text-anchor="middle" x="717" y="-192.6" font-family="Times,serif" font-size="14.00">ApiConfigService </text>
</g>
<!-- AwsS3Service  -->
<g id="node2" class="node">
<title>AwsS3Service </title>
<polygon fill="#fb8072" stroke="black" points="637.92,-214.8 536.08,-214.8 536.08,-178.8 637.92,-178.8 637.92,-214.8"/>
<text text-anchor="middle" x="587" y="-192.6" font-family="Times,serif" font-size="14.00">AwsS3Service </text>
</g>
<!-- GeneratorService  -->
<g id="node3" class="node">
<title>GeneratorService </title>
<polygon fill="#fb8072" stroke="black" points="517.94,-214.8 400.06,-214.8 400.06,-178.8 517.94,-178.8 517.94,-214.8"/>
<text text-anchor="middle" x="459" y="-192.6" font-family="Times,serif" font-size="14.00">GeneratorService </text>
</g>
<!-- TranslationService  -->
<g id="node4" class="node">
<title>TranslationService </title>
<polygon fill="#fb8072" stroke="black" points="382.74,-214.8 257.26,-214.8 257.26,-178.8 382.74,-178.8 382.74,-214.8"/>
<text text-anchor="middle" x="320" y="-192.6" font-family="Times,serif" font-size="14.00">TranslationService </text>
</g>
<!-- ValidatorService  -->
<g id="node5" class="node">
<title>ValidatorService </title>
<polygon fill="#fb8072" stroke="black" points="239.35,-214.8 124.65,-214.8 124.65,-178.8 239.35,-178.8 239.35,-214.8"/>
<text text-anchor="middle" x="182" y="-192.6" font-family="Times,serif" font-size="14.00">ValidatorService </text>
</g>
<!-- SharedModule -->
<g id="node6" class="node">
<title>SharedModule</title>
<polygon fill="#8dd3c7" stroke="black" points="508.42,-149.8 505.42,-153.8 484.42,-153.8 481.42,-149.8 409.58,-149.8 409.58,-113.8 508.42,-113.8 508.42,-149.8"/>
<text text-anchor="middle" x="459" y="-127.6" font-family="Times,serif" font-size="14.00">SharedModule</text>
</g>
<!-- SharedModule&#45;&gt;ApiConfigService  -->
<g id="edge1" class="edge">
<title>SharedModule&#45;&gt;ApiConfigService </title>
<path fill="none" stroke="black" stroke-dasharray="5,2" d="M508.23,-135.8C571.59,-135.8 673.6,-135.8 673.6,-135.8 673.6,-135.8 673.6,-168.5 673.6,-168.5"/>
<polygon fill="black" stroke="black" points="670.1,-168.5 673.6,-178.5 677.1,-168.5 670.1,-168.5"/>
</g>
<!-- SharedModule&#45;&gt;AwsS3Service  -->
<g id="edge2" class="edge">
<title>SharedModule&#45;&gt;AwsS3Service </title>
<path fill="none" stroke="black" stroke-dasharray="5,2" d="M508.29,-142.8C528.11,-142.8 546.35,-142.8 546.35,-142.8 546.35,-142.8 546.35,-168.52 546.35,-168.52"/>
<polygon fill="black" stroke="black" points="542.85,-168.52 546.35,-178.52 549.85,-168.52 542.85,-168.52"/>
</g>
<!-- SharedModule&#45;&gt;GeneratorService  -->
<g id="edge3" class="edge">
<title>SharedModule&#45;&gt;GeneratorService </title>
<path fill="none" stroke="black" stroke-dasharray="5,2" d="M459,-149.91C459,-149.91 459,-168.79 459,-168.79"/>
<polygon fill="black" stroke="black" points="455.5,-168.79 459,-178.79 462.5,-168.79 455.5,-168.79"/>
</g>
<!-- SharedModule&#45;&gt;TranslationService  -->
<g id="edge4" class="edge">
<title>SharedModule&#45;&gt;TranslationService </title>
<path fill="none" stroke="black" stroke-dasharray="5,2" d="M409.7,-142.8C389.69,-142.8 371.19,-142.8 371.19,-142.8 371.19,-142.8 371.19,-168.52 371.19,-168.52"/>
<polygon fill="black" stroke="black" points="367.69,-168.52 371.19,-178.52 374.69,-168.52 367.69,-168.52"/>
</g>
<!-- SharedModule&#45;&gt;ValidatorService  -->
<g id="edge5" class="edge">
<title>SharedModule&#45;&gt;ValidatorService </title>
<path fill="none" stroke="black" stroke-dasharray="5,2" d="M409.65,-135.8C338.78,-135.8 216.6,-135.8 216.6,-135.8 216.6,-135.8 216.6,-168.5 216.6,-168.5"/>
<polygon fill="black" stroke="black" points="213.1,-168.5 216.6,-178.5 220.1,-168.5 213.1,-168.5"/>
</g>
<!-- ApiConfigService -->
<g id="node7" class="node">
<title>ApiConfigService</title>
<ellipse fill="#fdb462" stroke="black" cx="790" cy="-66.8" rx="81.1" ry="18"/>
<text text-anchor="middle" x="790" y="-62.6" font-family="Times,serif" font-size="14.00">ApiConfigService</text>
</g>
<!-- ApiConfigService&#45;&gt;SharedModule -->
<g id="edge6" class="edge">
<title>ApiConfigService&#45;&gt;SharedModule</title>
<path fill="none" stroke="black" d="M743.19,-81.81C743.19,-100.16 743.19,-128.8 743.19,-128.8 743.19,-128.8 518.5,-128.8 518.5,-128.8"/>
<polygon fill="black" stroke="black" points="518.5,-125.3 508.5,-128.8 518.5,-132.3 518.5,-125.3"/>
</g>
<!-- AwsS3Service -->
<g id="node8" class="node">
<title>AwsS3Service</title>
<ellipse fill="#fdb462" stroke="black" cx="623" cy="-66.8" rx="67.77" ry="18"/>
<text text-anchor="middle" x="623" y="-62.6" font-family="Times,serif" font-size="14.00">AwsS3Service</text>
</g>
<!-- AwsS3Service&#45;&gt;SharedModule -->
<g id="edge7" class="edge">
<title>AwsS3Service&#45;&gt;SharedModule</title>
<path fill="none" stroke="black" d="M596.54,-83.6C596.54,-99.78 596.54,-121.8 596.54,-121.8 596.54,-121.8 518.27,-121.8 518.27,-121.8"/>
<polygon fill="black" stroke="black" points="518.27,-118.3 508.27,-121.8 518.27,-125.3 518.27,-118.3"/>
</g>
<!-- GeneratorService -->
<g id="node9" class="node">
<title>GeneratorService</title>
<ellipse fill="#fdb462" stroke="black" cx="459" cy="-66.8" rx="78.69" ry="18"/>
<text text-anchor="middle" x="459" y="-62.6" font-family="Times,serif" font-size="14.00">GeneratorService</text>
</g>
<!-- GeneratorService&#45;&gt;SharedModule -->
<g id="edge8" class="edge">
<title>GeneratorService&#45;&gt;SharedModule</title>
<path fill="none" stroke="black" d="M459,-84.91C459,-84.91 459,-103.79 459,-103.79"/>
<polygon fill="black" stroke="black" points="455.5,-103.79 459,-113.79 462.5,-103.79 455.5,-103.79"/>
</g>
<!-- TranslationService -->
<g id="node10" class="node">
<title>TranslationService</title>
<ellipse fill="#fdb462" stroke="black" cx="278" cy="-66.8" rx="83.94" ry="18"/>
<text text-anchor="middle" x="278" y="-62.6" font-family="Times,serif" font-size="14.00">TranslationService</text>
</g>
<!-- TranslationService&#45;&gt;SharedModule -->
<g id="edge9" class="edge">
<title>TranslationService&#45;&gt;SharedModule</title>
<path fill="none" stroke="black" d="M309.68,-83.6C309.68,-99.78 309.68,-121.8 309.68,-121.8 309.68,-121.8 399.69,-121.8 399.69,-121.8"/>
<polygon fill="black" stroke="black" points="399.69,-125.3 409.69,-121.8 399.69,-118.3 399.69,-125.3"/>
</g>
<!-- ValidatorService -->
<g id="node11" class="node">
<title>ValidatorService</title>
<ellipse fill="#fdb462" stroke="black" cx="100" cy="-66.8" rx="76.42" ry="18"/>
<text text-anchor="middle" x="100" y="-62.6" font-family="Times,serif" font-size="14.00">ValidatorService</text>
</g>
<!-- ValidatorService&#45;&gt;SharedModule -->
<g id="edge10" class="edge">
<title>ValidatorService&#45;&gt;SharedModule</title>
<path fill="none" stroke="black" d="M150.64,-80.56C150.64,-98.83 150.64,-128.8 150.64,-128.8 150.64,-128.8 399.46,-128.8 399.46,-128.8"/>
<polygon fill="black" stroke="black" points="399.46,-132.3 409.46,-128.8 399.46,-125.3 399.46,-132.3"/>
</g>
</g>
</svg>
