<?xml version="1.0" encoding="UTF-8" standalone="no"?>
<!DOCTYPE svg PUBLIC "-//W3C//DTD SVG 1.1//EN"
 "http://www.w3.org/Graphics/SVG/1.1/DTD/svg11.dtd">
<!-- Generated by graphviz version 2.47.3 (20210619.1520)
 -->
<!-- Title: dependencies Pages: 1 -->
<svg width="1866pt" height="261pt"
 viewBox="0.00 0.00 1866.00 260.80" xmlns="http://www.w3.org/2000/svg" xmlns:xlink="http://www.w3.org/1999/xlink">
<g id="graph0" class="graph" transform="scale(1 1) rotate(0) translate(4 256.8)">
<title>dependencies</title>
<polygon fill="white" stroke="transparent" points="-4,4 -4,-256.8 1862,-256.8 1862,4 -4,4"/>
<text text-anchor="middle" x="929" y="-8.2" font-family="sans-serif" font-size="14.00">dependencies</text>
<g id="clust1" class="cluster">
<title>cluster_AppModule</title>
<polygon fill="none" stroke="black" stroke-dasharray="1,5" points="207,-108.8 207,-236.8 695,-236.8 695,-108.8 207,-108.8"/>
</g>
<g id="clust3" class="cluster">
<title>cluster_AppModule_imports</title>
<polygon fill="none" stroke="black" points="215,-116.8 215,-168.8 687,-168.8 687,-116.8 215,-116.8"/>
</g>
<g id="clust7" class="cluster">
<title>cluster_AuthModule</title>
<polygon fill="none" stroke="black" stroke-dasharray="1,5" points="8,-32.8 8,-100.8 558,-100.8 558,-32.8 8,-32.8"/>
</g>
<g id="clust10" class="cluster">
<title>cluster_AuthModule_exports</title>
<polygon fill="none" stroke="black" points="444,-40.8 444,-92.8 550,-92.8 550,-40.8 444,-40.8"/>
</g>
<g id="clust12" class="cluster">
<title>cluster_AuthModule_providers</title>
<polygon fill="none" stroke="black" points="16,-40.8 16,-92.8 436,-92.8 436,-40.8 16,-40.8"/>
</g>
<g id="clust13" class="cluster">
<title>cluster_HealthCheckerModule</title>
<polygon fill="none" stroke="black" stroke-dasharray="1,5" points="566,-32.8 566,-100.8 800,-100.8 800,-32.8 566,-32.8"/>
</g>
<g id="clust18" class="cluster">
<title>cluster_HealthCheckerModule_providers</title>
<polygon fill="none" stroke="black" points="574,-40.8 574,-92.8 792,-92.8 792,-40.8 574,-40.8"/>
</g>
<g id="clust25" class="cluster">
<title>cluster_SharedModule</title>
<polygon fill="none" stroke="black" stroke-dasharray="1,5" points="971,-32.8 971,-244.8 1850,-244.8 1850,-32.8 971,-32.8"/>
</g>
<g id="clust28" class="cluster">
<title>cluster_SharedModule_exports</title>
<polygon fill="none" stroke="black" points="1080,-184.8 1080,-236.8 1749,-236.8 1749,-184.8 1080,-184.8"/>
</g>
<g id="clust30" class="cluster">
<title>cluster_SharedModule_providers</title>
<polygon fill="none" stroke="black" points="979,-40.8 979,-92.8 1842,-92.8 1842,-40.8 979,-40.8"/>
</g>
<g id="clust31" class="cluster">
<title>cluster_UserModule</title>
<polygon fill="none" stroke="black" stroke-dasharray="1,5" points="703,-176.8 703,-244.8 963,-244.8 963,-176.8 703,-176.8"/>
</g>
<g id="clust34" class="cluster">
<title>cluster_UserModule_exports</title>
<polygon fill="none" stroke="black" points="851,-184.8 851,-236.8 955,-236.8 955,-184.8 851,-184.8"/>
</g>
<g id="clust36" class="cluster">
<title>cluster_UserModule_providers</title>
<polygon fill="none" stroke="black" points="711,-184.8 711,-236.8 843,-236.8 843,-184.8 711,-184.8"/>
</g>
<!-- AuthModule -->
<g id="node1" class="node">
<title>AuthModule</title>
<polygon fill="#8dd3c7" stroke="black" points="412.55,-160.8 409.55,-164.8 388.55,-164.8 385.55,-160.8 325.45,-160.8 325.45,-124.8 412.55,-124.8 412.55,-160.8"/>
<text text-anchor="middle" x="369" y="-138.6" font-family="Times,serif" font-size="14.00">AuthModule</text>
</g>
<!-- AppModule -->
<g id="node5" class="node">
<title>AppModule</title>
<polygon fill="#8dd3c7" stroke="black" points="477.66,-228.8 474.66,-232.8 453.66,-232.8 450.66,-228.8 394.34,-228.8 394.34,-192.8 477.66,-192.8 477.66,-228.8"/>
<text text-anchor="middle" x="436" y="-206.6" font-family="Times,serif" font-size="14.00">AppModule</text>
</g>
<!-- AuthModule&#45;&gt;AppModule -->
<g id="edge1" class="edge">
<title>AuthModule&#45;&gt;AppModule</title>
<path fill="none" stroke="black" d="M403.47,-161.02C403.47,-161.02 403.47,-182.53 403.47,-182.53"/>
<polygon fill="black" stroke="black" points="399.97,-182.53 403.47,-192.53 406.97,-182.53 399.97,-182.53"/>
</g>
<!-- AuthService  -->
<g id="node6" class="node">
<title>AuthService </title>
<polygon fill="#fb8072" stroke="black" points="541.98,-84.8 452.02,-84.8 452.02,-48.8 541.98,-48.8 541.98,-84.8"/>
<text text-anchor="middle" x="497" y="-62.6" font-family="Times,serif" font-size="14.00">AuthService </text>
</g>
<!-- AuthModule&#45;&gt;AuthService  -->
<g id="edge5" class="edge">
<title>AuthModule&#45;&gt;AuthService </title>
<path fill="none" stroke="black" stroke-dasharray="5,2" d="M395.26,-124.59C395.26,-119.25 395.26,-114.8 395.26,-114.8 395.26,-114.8 497,-114.8 497,-114.8 497,-114.8 497,-94.95 497,-94.95"/>
<polygon fill="black" stroke="black" points="500.5,-94.95 497,-84.95 493.5,-94.95 500.5,-94.95"/>
</g>
<!-- HealthCheckerModule -->
<g id="node2" class="node">
<title>HealthCheckerModule</title>
<polygon fill="#8dd3c7" stroke="black" points="574.51,-160.8 571.51,-164.8 550.51,-164.8 547.51,-160.8 431.49,-160.8 431.49,-124.8 574.51,-124.8 574.51,-160.8"/>
<text text-anchor="middle" x="503" y="-138.6" font-family="Times,serif" font-size="14.00">HealthCheckerModule</text>
</g>
<!-- HealthCheckerModule&#45;&gt;AppModule -->
<g id="edge2" class="edge">
<title>HealthCheckerModule&#45;&gt;AppModule</title>
<path fill="none" stroke="black" d="M454.54,-161.02C454.54,-161.02 454.54,-182.53 454.54,-182.53"/>
<polygon fill="black" stroke="black" points="451.04,-182.53 454.54,-192.53 458.04,-182.53 451.04,-182.53"/>
</g>
<!-- PostModule -->
<g id="node3" class="node">
<title>PostModule</title>
<polygon fill="#8dd3c7" stroke="black" points="306.67,-160.8 303.67,-164.8 282.67,-164.8 279.67,-160.8 223.33,-160.8 223.33,-124.8 306.67,-124.8 306.67,-160.8"/>
<text text-anchor="middle" x="265" y="-138.6" font-family="Times,serif" font-size="14.00">PostModule</text>
</g>
<!-- PostModule&#45;&gt;AppModule -->
<g id="edge3" class="edge">
<title>PostModule&#45;&gt;AppModule</title>
<path fill="none" stroke="black" d="M265,-161.02C265,-181.17 265,-210.8 265,-210.8 265,-210.8 384.17,-210.8 384.17,-210.8"/>
<polygon fill="black" stroke="black" points="384.17,-214.3 394.17,-210.8 384.17,-207.3 384.17,-214.3"/>
</g>
<!-- UserModule -->
<g id="node4" class="node">
<title>UserModule</title>
<polygon fill="#8dd3c7" stroke="black" points="678.98,-160.8 675.98,-164.8 654.98,-164.8 651.98,-160.8 593.02,-160.8 593.02,-124.8 678.98,-124.8 678.98,-160.8"/>
<text text-anchor="middle" x="636" y="-138.6" font-family="Times,serif" font-size="14.00">UserModule</text>
</g>
<!-- UserModule&#45;&gt;AppModule -->
<g id="edge4" class="edge">
<title>UserModule&#45;&gt;AppModule</title>
<path fill="none" stroke="black" d="M636,-161.02C636,-181.17 636,-210.8 636,-210.8 636,-210.8 487.93,-210.8 487.93,-210.8"/>
<polygon fill="black" stroke="black" points="487.93,-207.3 477.93,-210.8 487.93,-214.3 487.93,-207.3"/>
</g>
<!-- UserService  -->
<g id="node22" class="node">
<title>UserService </title>
<polygon fill="#fb8072" stroke="black" points="946.9,-228.8 859.1,-228.8 859.1,-192.8 946.9,-192.8 946.9,-228.8"/>
<text text-anchor="middle" x="903" y="-206.6" font-family="Times,serif" font-size="14.00">UserService </text>
</g>
<!-- UserModule&#45;&gt;UserService  -->
<g id="edge20" class="edge">
<title>UserModule&#45;&gt;UserService </title>
<path fill="none" stroke="black" stroke-dasharray="5,2" d="M679.19,-130.8C754.76,-130.8 903,-130.8 903,-130.8 903,-130.8 903,-182.65 903,-182.65"/>
<polygon fill="black" stroke="black" points="899.5,-182.65 903,-192.65 906.5,-182.65 899.5,-182.65"/>
</g>
<!-- AuthService -->
<g id="node7" class="node">
<title>AuthService</title>
<ellipse fill="#fdb462" stroke="black" cx="369" cy="-66.8" rx="59.11" ry="18"/>
<text text-anchor="middle" x="369" y="-62.6" font-family="Times,serif" font-size="14.00">AuthService</text>
</g>
<!-- AuthService&#45;&gt;AuthModule -->
<g id="edge6" class="edge">
<title>AuthService&#45;&gt;AuthModule</title>
<path fill="none" stroke="black" d="M377.75,-84.81C377.75,-84.81 377.75,-114.65 377.75,-114.65"/>
<polygon fill="black" stroke="black" points="374.25,-114.65 377.75,-124.65 381.25,-114.65 374.25,-114.65"/>
</g>
<!-- JwtStrategy -->
<g id="node8" class="node">
<title>JwtStrategy</title>
<ellipse fill="#fdb462" stroke="black" cx="235" cy="-66.8" rx="56.76" ry="18"/>
<text text-anchor="middle" x="235" y="-62.6" font-family="Times,serif" font-size="14.00">JwtStrategy</text>
</g>
<!-- JwtStrategy&#45;&gt;AuthModule -->
<g id="edge7" class="edge">
<title>JwtStrategy&#45;&gt;AuthModule</title>
<path fill="none" stroke="black" d="M257.4,-83.41C257.4,-89.44 257.4,-94.8 257.4,-94.8 257.4,-94.8 360.25,-94.8 360.25,-94.8 360.25,-94.8 360.25,-114.65 360.25,-114.65"/>
<polygon fill="black" stroke="black" points="356.75,-114.65 360.25,-124.65 363.75,-114.65 356.75,-114.65"/>
</g>
<!-- PublicStrategy -->
<g id="node9" class="node">
<title>PublicStrategy</title>
<ellipse fill="#fdb462" stroke="black" cx="92" cy="-66.8" rx="67.79" ry="18"/>
<text text-anchor="middle" x="92" y="-62.6" font-family="Times,serif" font-size="14.00">PublicStrategy</text>
</g>
<!-- PublicStrategy&#45;&gt;AuthModule -->
<g id="edge8" class="edge">
<title>PublicStrategy&#45;&gt;AuthModule</title>
<path fill="none" stroke="black" d="M92,-84.91C92,-94.7 92,-104.8 92,-104.8 92,-104.8 342.74,-104.8 342.74,-104.8 342.74,-104.8 342.74,-114.69 342.74,-114.69"/>
<polygon fill="black" stroke="black" points="339.24,-114.69 342.74,-124.69 346.24,-114.69 339.24,-114.69"/>
</g>
<!-- ServiceHealthIndicator -->
<g id="node10" class="node">
<title>ServiceHealthIndicator</title>
<ellipse fill="#fdb462" stroke="black" cx="683" cy="-66.8" rx="100.68" ry="18"/>
<text text-anchor="middle" x="683" y="-62.6" font-family="Times,serif" font-size="14.00">ServiceHealthIndicator</text>
</g>
<!-- ServiceHealthIndicator&#45;&gt;HealthCheckerModule -->
<g id="edge9" class="edge">
<title>ServiceHealthIndicator&#45;&gt;HealthCheckerModule</title>
<path fill="none" stroke="black" d="M587.71,-72.76C587.71,-90.68 587.71,-142.8 587.71,-142.8 587.71,-142.8 584.85,-142.8 584.85,-142.8"/>
<polygon fill="black" stroke="black" points="584.85,-139.3 574.85,-142.8 584.85,-146.3 584.85,-139.3"/>
</g>
<!-- ApiConfigService  -->
<g id="node11" class="node">
<title>ApiConfigService </title>
<polygon fill="#fb8072" stroke="black" points="1740.86,-228.8 1619.14,-228.8 1619.14,-192.8 1740.86,-192.8 1740.86,-228.8"/>
<text text-anchor="middle" x="1680" y="-206.6" font-family="Times,serif" font-size="14.00">ApiConfigService </text>
</g>
<!-- AwsS3Service  -->
<g id="node12" class="node">
<title>AwsS3Service </title>
<polygon fill="#fb8072" stroke="black" points="1600.92,-228.8 1499.08,-228.8 1499.08,-192.8 1600.92,-192.8 1600.92,-228.8"/>
<text text-anchor="middle" x="1550" y="-206.6" font-family="Times,serif" font-size="14.00">AwsS3Service </text>
</g>
<!-- GeneratorService  -->
<g id="node13" class="node">
<title>GeneratorService </title>
<polygon fill="#fb8072" stroke="black" points="1480.94,-228.8 1363.06,-228.8 1363.06,-192.8 1480.94,-192.8 1480.94,-228.8"/>
<text text-anchor="middle" x="1422" y="-206.6" font-family="Times,serif" font-size="14.00">GeneratorService </text>
</g>
<!-- TranslationService  -->
<g id="node14" class="node">
<title>TranslationService </title>
<polygon fill="#fb8072" stroke="black" points="1345.74,-228.8 1220.26,-228.8 1220.26,-192.8 1345.74,-192.8 1345.74,-228.8"/>
<text text-anchor="middle" x="1283" y="-206.6" font-family="Times,serif" font-size="14.00">TranslationService </text>
</g>
<!-- ValidatorService  -->
<g id="node15" class="node">
<title>ValidatorService </title>
<polygon fill="#fb8072" stroke="black" points="1202.35,-228.8 1087.65,-228.8 1087.65,-192.8 1202.35,-192.8 1202.35,-228.8"/>
<text text-anchor="middle" x="1145" y="-206.6" font-family="Times,serif" font-size="14.00">ValidatorService </text>
</g>
<!-- SharedModule -->
<g id="node16" class="node">
<title>SharedModule</title>
<polygon fill="#8dd3c7" stroke="black" points="1471.42,-160.8 1468.42,-164.8 1447.42,-164.8 1444.42,-160.8 1372.58,-160.8 1372.58,-124.8 1471.42,-124.8 1471.42,-160.8"/>
<text text-anchor="middle" x="1422" y="-138.6" font-family="Times,serif" font-size="14.00">SharedModule</text>
</g>
<!-- SharedModule&#45;&gt;ApiConfigService  -->
<g id="edge10" class="edge">
<title>SharedModule&#45;&gt;ApiConfigService </title>
<path fill="none" stroke="black" stroke-dasharray="5,2" d="M1471.23,-146.8C1534.59,-146.8 1636.6,-146.8 1636.6,-146.8 1636.6,-146.8 1636.6,-182.63 1636.6,-182.63"/>
<polygon fill="black" stroke="black" points="1633.1,-182.63 1636.6,-192.63 1640.1,-182.63 1633.1,-182.63"/>
</g>
<!-- SharedModule&#45;&gt;AwsS3Service  -->
<g id="edge11" class="edge">
<title>SharedModule&#45;&gt;AwsS3Service </title>
<path fill="none" stroke="black" stroke-dasharray="5,2" d="M1471.29,-153.8C1491.11,-153.8 1509.35,-153.8 1509.35,-153.8 1509.35,-153.8 1509.35,-182.76 1509.35,-182.76"/>
<polygon fill="black" stroke="black" points="1505.85,-182.76 1509.35,-192.76 1512.85,-182.76 1505.85,-182.76"/>
</g>
<!-- SharedModule&#45;&gt;GeneratorService  -->
<g id="edge12" class="edge">
<title>SharedModule&#45;&gt;GeneratorService </title>
<path fill="none" stroke="black" stroke-dasharray="5,2" d="M1422,-161.02C1422,-161.02 1422,-182.53 1422,-182.53"/>
<polygon fill="black" stroke="black" points="1418.5,-182.53 1422,-192.53 1425.5,-182.53 1418.5,-182.53"/>
</g>
<!-- SharedModule&#45;&gt;TranslationService  -->
<g id="edge13" class="edge">
<title>SharedModule&#45;&gt;TranslationService </title>
<path fill="none" stroke="black" stroke-dasharray="5,2" d="M1372.7,-155.8C1352.69,-155.8 1334.19,-155.8 1334.19,-155.8 1334.19,-155.8 1334.19,-182.79 1334.19,-182.79"/>
<polygon fill="black" stroke="black" points="1330.69,-182.79 1334.19,-192.79 1337.69,-182.79 1330.69,-182.79"/>
</g>
<!-- SharedModule&#45;&gt;ValidatorService  -->
<g id="edge14" class="edge">
<title>SharedModule&#45;&gt;ValidatorService </title>
<path fill="none" stroke="black" stroke-dasharray="5,2" d="M1372.65,-145.8C1301.78,-145.8 1179.6,-145.8 1179.6,-145.8 1179.6,-145.8 1179.6,-182.69 1179.6,-182.69"/>
<polygon fill="black" stroke="black" points="1176.1,-182.69 1179.6,-192.69 1183.1,-182.69 1176.1,-182.69"/>
</g>
<!-- ApiConfigService -->
<g id="node17" class="node">
<title>ApiConfigService</title>
<ellipse fill="#fdb462" stroke="black" cx="1753" cy="-66.8" rx="81.1" ry="18"/>
<text text-anchor="middle" x="1753" y="-62.6" font-family="Times,serif" font-size="14.00">ApiConfigService</text>
</g>
<!-- ApiConfigService&#45;&gt;SharedModule -->
<g id="edge15" class="edge">
<title>ApiConfigService&#45;&gt;SharedModule</title>
<path fill="none" stroke="black" d="M1706.19,-81.57C1706.19,-102.9 1706.19,-139.8 1706.19,-139.8 1706.19,-139.8 1481.5,-139.8 1481.5,-139.8"/>
<polygon fill="black" stroke="black" points="1481.5,-136.3 1471.5,-139.8 1481.5,-143.3 1481.5,-136.3"/>
</g>
<!-- AwsS3Service -->
<g id="node18" class="node">
<title>AwsS3Service</title>
<ellipse fill="#fdb462" stroke="black" cx="1586" cy="-66.8" rx="67.77" ry="18"/>
<text text-anchor="middle" x="1586" y="-62.6" font-family="Times,serif" font-size="14.00">AwsS3Service</text>
</g>
<!-- AwsS3Service&#45;&gt;SharedModule -->
<g id="edge16" class="edge">
<title>AwsS3Service&#45;&gt;SharedModule</title>
<path fill="none" stroke="black" d="M1559.54,-83.45C1559.54,-103.01 1559.54,-132.8 1559.54,-132.8 1559.54,-132.8 1481.27,-132.8 1481.27,-132.8"/>
<polygon fill="black" stroke="black" points="1481.27,-129.3 1471.27,-132.8 1481.27,-136.3 1481.27,-129.3"/>
</g>
<!-- GeneratorService -->
<g id="node19" class="node">
<title>GeneratorService</title>
<ellipse fill="#fdb462" stroke="black" cx="1422" cy="-66.8" rx="78.69" ry="18"/>
<text text-anchor="middle" x="1422" y="-62.6" font-family="Times,serif" font-size="14.00">GeneratorService</text>
</g>
<!-- GeneratorService&#45;&gt;SharedModule -->
<g id="edge17" class="edge">
<title>GeneratorService&#45;&gt;SharedModule</title>
<path fill="none" stroke="black" d="M1422,-84.81C1422,-84.81 1422,-114.65 1422,-114.65"/>
<polygon fill="black" stroke="black" points="1418.5,-114.65 1422,-124.65 1425.5,-114.65 1418.5,-114.65"/>
</g>
<!-- TranslationService -->
<g id="node20" class="node">
<title>TranslationService</title>
<ellipse fill="#fdb462" stroke="black" cx="1241" cy="-66.8" rx="83.94" ry="18"/>
<text text-anchor="middle" x="1241" y="-62.6" font-family="Times,serif" font-size="14.00">TranslationService</text>
</g>
<!-- TranslationService&#45;&gt;SharedModule -->
<g id="edge18" class="edge">
<title>TranslationService&#45;&gt;SharedModule</title>
<path fill="none" stroke="black" d="M1272.68,-83.5C1272.68,-103.92 1272.68,-135.8 1272.68,-135.8 1272.68,-135.8 1362.69,-135.8 1362.69,-135.8"/>
<polygon fill="black" stroke="black" points="1362.69,-139.3 1372.69,-135.8 1362.69,-132.3 1362.69,-139.3"/>
</g>
<!-- ValidatorService -->
<g id="node21" class="node">
<title>ValidatorService</title>
<ellipse fill="#fdb462" stroke="black" cx="1063" cy="-66.8" rx="76.42" ry="18"/>
<text text-anchor="middle" x="1063" y="-62.6" font-family="Times,serif" font-size="14.00">ValidatorService</text>
</g>
<!-- ValidatorService&#45;&gt;SharedModule -->
<g id="edge19" class="edge">
<title>ValidatorService&#45;&gt;SharedModule</title>
<path fill="none" stroke="black" d="M1113.64,-80.37C1113.64,-101.74 1113.64,-140.8 1113.64,-140.8 1113.64,-140.8 1362.46,-140.8 1362.46,-140.8"/>
<polygon fill="black" stroke="black" points="1362.46,-144.3 1372.46,-140.8 1362.46,-137.3 1362.46,-144.3"/>
</g>
<!-- UserService -->
<g id="node23" class="node">
<title>UserService</title>
<ellipse fill="#fdb462" stroke="black" cx="777" cy="-210.8" rx="58.44" ry="18"/>
<text text-anchor="middle" x="777" y="-206.6" font-family="Times,serif" font-size="14.00">UserService</text>
</g>
<!-- UserService&#45;&gt;UserModule -->
<g id="edge21" class="edge">
<title>UserService&#45;&gt;UserModule</title>
<path fill="none" stroke="black" d="M751.18,-194.4C751.18,-176.64 751.18,-150.8 751.18,-150.8 751.18,-150.8 689.22,-150.8 689.22,-150.8"/>
<polygon fill="black" stroke="black" points="689.22,-147.3 679.22,-150.8 689.22,-154.3 689.22,-147.3"/>
</g>
</g>
</svg>
