<?xml version="1.0" encoding="UTF-8" standalone="no"?>
<!DOCTYPE svg PUBLIC "-//W3C//DTD SVG 1.1//EN"
 "http://www.w3.org/Graphics/SVG/1.1/DTD/svg11.dtd">
<!-- Generated by graphviz version 2.47.3 (20210619.1520)
 -->
<!-- Title: dependencies Pages: 1 -->
<svg width="512pt" height="174pt"
 viewBox="0.00 0.00 512.00 173.80" xmlns="http://www.w3.org/2000/svg" xmlns:xlink="http://www.w3.org/1999/xlink">
<g id="graph0" class="graph" transform="scale(1 1) rotate(0) translate(4 169.8)">
<title>dependencies</title>
<polygon fill="white" stroke="transparent" points="-4,4 -4,-169.8 508,-169.8 508,4 -4,4"/>
<text text-anchor="middle" x="252" y="-8.2" font-family="sans-serif" font-size="14.00">dependencies</text>
<g id="clust1" class="cluster">
<title>cluster_AppModule</title>
<polygon fill="none" stroke="black" stroke-dasharray="1,5" points="8,-32.8 8,-157.8 496,-157.8 496,-32.8 8,-32.8"/>
</g>
<g id="clust3" class="cluster">
<title>cluster_AppModule_imports</title>
<polygon fill="none" stroke="black" points="16,-40.8 16,-92.8 488,-92.8 488,-40.8 16,-40.8"/>
</g>
<!-- AuthModule -->
<g id="node1" class="node">
<title>AuthModule</title>
<polygon fill="#8dd3c7" stroke="black" points="479.55,-84.8 476.55,-88.8 455.55,-88.8 452.55,-84.8 392.45,-84.8 392.45,-48.8 479.55,-48.8 479.55,-84.8"/>
<text text-anchor="middle" x="436" y="-62.6" font-family="Times,serif" font-size="14.00">AuthModule</text>
</g>
<!-- AppModule -->
<g id="node5" class="node">
<title>AppModule</title>
<polygon fill="#8dd3c7" stroke="black" points="277.66,-149.8 274.66,-153.8 253.66,-153.8 250.66,-149.8 194.34,-149.8 194.34,-113.8 277.66,-113.8 277.66,-149.8"/>
<text text-anchor="middle" x="236" y="-127.6" font-family="Times,serif" font-size="14.00">AppModule</text>
</g>
<!-- AuthModule&#45;&gt;AppModule -->
<g id="edge1" class="edge">
<title>AuthModule&#45;&gt;AppModule</title>
<path fill="none" stroke="black" d="M436,-84.91C436,-104.14 436,-131.8 436,-131.8 436,-131.8 287.93,-131.8 287.93,-131.8"/>
<polygon fill="black" stroke="black" points="287.93,-128.3 277.93,-131.8 287.93,-135.3 287.93,-128.3"/>
</g>
<!-- HealthCheckerModule -->
<g id="node2" class="node">
<title>HealthCheckerModule</title>
<polygon fill="#8dd3c7" stroke="black" points="373.51,-84.8 370.51,-88.8 349.51,-88.8 346.51,-84.8 230.49,-84.8 230.49,-48.8 373.51,-48.8 373.51,-84.8"/>
<text text-anchor="middle" x="302" y="-62.6" font-family="Times,serif" font-size="14.00">HealthCheckerModule</text>
</g>
<!-- HealthCheckerModule&#45;&gt;AppModule -->
<g id="edge2" class="edge">
<title>HealthCheckerModule&#45;&gt;AppModule</title>
<path fill="none" stroke="black" d="M254.04,-84.91C254.04,-84.91 254.04,-103.79 254.04,-103.79"/>
<polygon fill="black" stroke="black" points="250.54,-103.79 254.04,-113.79 257.54,-103.79 250.54,-103.79"/>
</g>
<!-- PostModule -->
<g id="node3" class="node">
<title>PostModule</title>
<polygon fill="#8dd3c7" stroke="black" points="211.67,-84.8 208.67,-88.8 187.67,-88.8 184.67,-84.8 128.33,-84.8 128.33,-48.8 211.67,-48.8 211.67,-84.8"/>
<text text-anchor="middle" x="170" y="-62.6" font-family="Times,serif" font-size="14.00">PostModule</text>
</g>
<!-- PostModule&#45;&gt;AppModule -->
<g id="edge3" class="edge">
<title>PostModule&#45;&gt;AppModule</title>
<path fill="none" stroke="black" d="M203,-84.91C203,-84.91 203,-103.79 203,-103.79"/>
<polygon fill="black" stroke="black" points="199.5,-103.79 203,-113.79 206.5,-103.79 199.5,-103.79"/>
</g>
<!-- UserModule -->
<g id="node4" class="node">
<title>UserModule</title>
<polygon fill="#8dd3c7" stroke="black" points="109.98,-84.8 106.98,-88.8 85.98,-88.8 82.98,-84.8 24.02,-84.8 24.02,-48.8 109.98,-48.8 109.98,-84.8"/>
<text text-anchor="middle" x="67" y="-62.6" font-family="Times,serif" font-size="14.00">UserModule</text>
</g>
<!-- UserModule&#45;&gt;AppModule -->
<g id="edge4" class="edge">
<title>UserModule&#45;&gt;AppModule</title>
<path fill="none" stroke="black" d="M67,-84.91C67,-104.14 67,-131.8 67,-131.8 67,-131.8 184.22,-131.8 184.22,-131.8"/>
<polygon fill="black" stroke="black" points="184.22,-135.3 194.22,-131.8 184.22,-128.3 184.22,-135.3"/>
</g>
</g>
</svg>
